<svg width="145" height="28" viewBox="0 0 145 28" fill="none" xmlns="http://www.w3.org/2000/svg">
<path d="M13.3277 22.5982C13.2831 22.5982 13.2323 22.592 13.1878 22.5796C12.9339 22.5164 12.7568 22.2873 12.7568 22.0285V16.1004L9.4987 16.0992C9.2956 16.0992 9.1123 15.9914 9.01076 15.8205C8.90921 15.6496 8.90302 15.4341 8.99838 15.2558L14.1786 5.70029C14.3049 5.47243 14.565 5.35105 14.8188 5.42165C15.0727 5.48481 15.2498 5.71391 15.2498 5.97274V11.9008H18.5019C18.705 11.9008 18.8883 12.0086 18.9898 12.1795C19.0914 12.3504 19.0976 12.5659 19.0022 12.7442L13.822 22.2997C13.7279 22.4904 13.5308 22.5982 13.3277 22.5982ZM10.4559 14.9572H13.3277C13.6447 14.9572 13.8986 15.211 13.8986 15.5281V19.7756L17.5508 13.0426H14.6789C14.3619 13.0426 14.108 12.7887 14.108 12.4717V8.22412L10.4559 14.9572Z" fill="#0317CE"/>
<path d="M14.0001 3.41797C13.6831 3.41797 13.4292 3.1641 13.4292 2.84707V0.570904C13.4292 0.253876 13.6831 0 14.0001 0C14.3172 0 14.571 0.25387 14.571 0.570904V2.84707C14.571 3.1641 14.3172 3.41797 14.0001 3.41797Z" fill="#0317CE"/>
<path d="M14.0001 28C13.6831 28 13.4292 27.7461 13.4292 27.4291V25.1529C13.4292 24.8359 13.6831 24.582 14.0001 24.582C14.3172 24.582 14.571 24.8359 14.571 25.1529V27.4291C14.571 27.7461 14.3172 28 14.0001 28Z" fill="#0317CE"/>
<path d="M27.4291 14.571H25.1529C24.8359 14.571 24.582 14.3171 24.582 14.0001C24.582 13.6831 24.8359 13.4292 25.1529 13.4292H27.4291C27.7461 13.4292 28 13.6831 28 14.0001C28 14.3171 27.7461 14.571 27.4291 14.571Z" fill="#0317CE"/>
<path d="M2.84707 14.571H0.570904C0.253876 14.571 0 14.3171 0 14.0001C0 13.6831 0.25387 13.4292 0.570904 13.4292H2.84707C3.1641 13.4292 3.41797 13.6831 3.41797 14.0001C3.41797 14.3171 3.1641 14.571 2.84707 14.571Z" fill="#0317CE"/>
<path d="M20.8993 7.67184C20.7531 7.67184 20.607 7.61487 20.4931 7.50714C20.2714 7.28546 20.2714 6.92387 20.4931 6.70217L21.9011 5.29412C22.1228 5.07245 22.4844 5.07245 22.7061 5.29412C22.9278 5.5158 22.9278 5.87739 22.7061 6.09909L21.2981 7.50714C21.1903 7.61487 21.0442 7.67184 20.8993 7.67184H20.8993Z" fill="#0317CE"/>
<path d="M5.6943 22.8768C5.54817 22.8768 5.40204 22.8198 5.28813 22.7121C5.06645 22.4904 5.06645 22.1288 5.28813 21.9071L6.69617 20.4991C6.91785 20.2774 7.27944 20.2774 7.50114 20.4991C7.72284 20.7208 7.72281 21.0823 7.50114 21.304L6.09309 22.7121C5.98535 22.8198 5.84046 22.8768 5.69433 22.8768H5.6943Z" fill="#0317CE"/>
<path d="M22.3059 22.8768C22.1598 22.8768 22.0137 22.8198 21.8998 22.7121L20.4917 21.304C20.27 21.0824 20.27 20.7208 20.4917 20.4991C20.7134 20.2774 21.075 20.2774 21.2967 20.4991L22.7047 21.9071C22.9264 22.1288 22.9264 22.4904 22.7047 22.7121C22.5982 22.8198 22.4521 22.8768 22.306 22.8768H22.3059Z" fill="#0317CE"/>
<path d="M7.10096 7.67184C6.95483 7.67184 6.8087 7.61487 6.69479 7.50714L5.28674 6.09909C5.06507 5.87742 5.06507 5.51582 5.28674 5.29412C5.50841 5.07245 5.87001 5.07245 6.0917 5.29412L7.49975 6.70217C7.72142 6.92384 7.72142 7.28544 7.49975 7.50714C7.39325 7.61487 7.24712 7.67184 7.10099 7.67184H7.10096Z" fill="#0317CE"/>
<path d="M45.04 18.32C45.2667 18.32 45.4467 18.4067 45.58 18.58C45.7267 18.7533 45.8 18.9867 45.8 19.28C45.8 19.6933 45.5533 20.04 45.06 20.32C44.6067 20.5733 44.0933 20.78 43.52 20.94C42.9467 21.0867 42.4 21.16 41.88 21.16C40.3067 21.16 39.06 20.7067 38.14 19.8C37.22 18.8933 36.76 17.6533 36.76 16.08C36.76 15.08 36.96 14.1933 37.36 13.42C37.76 12.6467 38.32 12.0467 39.04 11.62C39.7733 11.1933 40.6 10.98 41.52 10.98C42.4 10.98 43.1667 11.1733 43.82 11.56C44.4733 11.9467 44.98 12.4933 45.34 13.2C45.7 13.9067 45.88 14.74 45.88 15.7C45.88 16.2733 45.6267 16.56 45.12 16.56H39.22C39.3 17.48 39.56 18.16 40 18.6C40.44 19.0267 41.08 19.24 41.92 19.24C42.3467 19.24 42.72 19.1867 43.04 19.08C43.3733 18.9733 43.7467 18.8267 44.16 18.64C44.56 18.4267 44.8533 18.32 45.04 18.32ZM41.58 12.74C40.9 12.74 40.3533 12.9533 39.94 13.38C39.54 13.8067 39.3 14.42 39.22 15.22H43.74C43.7133 14.4067 43.5133 13.7933 43.14 13.38C42.7667 12.9533 42.2467 12.74 41.58 12.74ZM48.685 21.12C48.325 21.12 48.025 21.02 47.785 20.82C47.5583 20.6067 47.445 20.3067 47.445 19.92V7.98C47.445 7.59333 47.5583 7.3 47.785 7.1C48.025 6.9 48.325 6.8 48.685 6.8C49.045 6.8 49.345 6.9 49.585 7.1C49.825 7.3 49.945 7.59333 49.945 7.98V19.92C49.945 20.3067 49.825 20.6067 49.585 20.82C49.345 21.02 49.045 21.12 48.685 21.12ZM59.7831 18.32C60.0098 18.32 60.1898 18.4067 60.3231 18.58C60.4698 18.7533 60.5431 18.9867 60.5431 19.28C60.5431 19.6933 60.2965 20.04 59.8031 20.32C59.3498 20.5733 58.8365 20.78 58.2631 20.94C57.6898 21.0867 57.1431 21.16 56.6231 21.16C55.0498 21.16 53.8031 20.7067 52.8831 19.8C51.9631 18.8933 51.5031 17.6533 51.5031 16.08C51.5031 15.08 51.7031 14.1933 52.1031 13.42C52.5031 12.6467 53.0631 12.0467 53.7831 11.62C54.5165 11.1933 55.3431 10.98 56.2631 10.98C57.1431 10.98 57.9098 11.1733 58.5631 11.56C59.2165 11.9467 59.7231 12.4933 60.0831 13.2C60.4431 13.9067 60.6231 14.74 60.6231 15.7C60.6231 16.2733 60.3698 16.56 59.8631 16.56H53.9631C54.0431 17.48 54.3031 18.16 54.7431 18.6C55.1831 19.0267 55.8231 19.24 56.6631 19.24C57.0898 19.24 57.4631 19.1867 57.7831 19.08C58.1165 18.9733 58.4898 18.8267 58.9031 18.64C59.3031 18.4267 59.5965 18.32 59.7831 18.32ZM56.3231 12.74C55.6431 12.74 55.0965 12.9533 54.6831 13.38C54.2831 13.8067 54.0431 14.42 53.9631 15.22H58.4831C58.4565 14.4067 58.2565 13.7933 57.8831 13.38C57.5098 12.9533 56.9898 12.74 56.3231 12.74ZM70.8881 19.06C71.1548 19.3133 71.2881 19.6 71.2881 19.92C71.2881 20.2267 71.1748 20.5 70.9481 20.74C70.7348 20.98 70.4815 21.1 70.1881 21.1C69.8948 21.1 69.6215 20.98 69.3681 20.74L64.6881 16.5V19.92C64.6881 20.3067 64.5681 20.6 64.3281 20.8C64.0881 21 63.7881 21.1 63.4281 21.1C63.0681 21.1 62.7681 21 62.5281 20.8C62.3015 20.6 62.1881 20.3067 62.1881 19.92V7.98C62.1881 7.59333 62.3015 7.3 62.5281 7.1C62.7681 6.9 63.0681 6.8 63.4281 6.8C63.7881 6.8 64.0881 6.9 64.3281 7.1C64.5681 7.3 64.6881 7.59333 64.6881 7.98V15.5L68.9681 11.4C69.2081 11.16 69.4815 11.04 69.7881 11.04C70.0948 11.04 70.3615 11.1533 70.5881 11.38C70.8148 11.6067 70.9281 11.8733 70.9281 12.18C70.9281 12.4867 70.8015 12.7667 70.5481 13.02L67.4081 15.94L70.8881 19.06ZM77.4717 19.26C78.1384 19.3 78.4717 19.6 78.4717 20.16C78.4717 20.48 78.3384 20.7267 78.0717 20.9C77.8184 21.06 77.4517 21.1267 76.9717 21.1L76.4317 21.06C74.1917 20.9 73.0717 19.7 73.0717 17.46V13.1H72.0717C71.7117 13.1 71.4317 13.02 71.2317 12.86C71.0451 12.7 70.9517 12.4667 70.9517 12.16C70.9517 11.8533 71.0451 11.62 71.2317 11.46C71.4317 11.3 71.7117 11.22 72.0717 11.22H73.0717V9.38C73.0717 9.02 73.1851 8.73333 73.4117 8.52C73.6384 8.30667 73.9451 8.2 74.3317 8.2C74.7051 8.2 75.0051 8.30667 75.2317 8.52C75.4584 8.73333 75.5717 9.02 75.5717 9.38V11.22H77.2717C77.6317 11.22 77.9051 11.3 78.0917 11.46C78.2917 11.62 78.3917 11.8533 78.3917 12.16C78.3917 12.4667 78.2917 12.7 78.0917 12.86C77.9051 13.02 77.6317 13.1 77.2717 13.1H75.5717V17.64C75.5717 18.6267 76.0251 19.1533 76.9317 19.22L77.4717 19.26ZM84.7545 11.02C85.1012 10.9933 85.3745 11.0667 85.5745 11.24C85.7745 11.4133 85.8745 11.6733 85.8745 12.02C85.8745 12.38 85.7879 12.6467 85.6145 12.82C85.4412 12.9933 85.1279 13.1067 84.6745 13.16L84.0745 13.22C83.2879 13.3 82.7079 13.5667 82.3345 14.02C81.9745 14.4733 81.7945 15.04 81.7945 15.72V19.92C81.7945 20.3067 81.6745 20.6067 81.4345 20.82C81.1945 21.02 80.8945 21.12 80.5345 21.12C80.1745 21.12 79.8745 21.02 79.6345 20.82C79.4079 20.6067 79.2945 20.3067 79.2945 19.92V12.18C79.2945 11.8067 79.4079 11.52 79.6345 11.32C79.8745 11.12 80.1679 11.02 80.5145 11.02C80.8612 11.02 81.1412 11.12 81.3545 11.32C81.5679 11.5067 81.6745 11.78 81.6745 12.14V12.94C81.9279 12.3533 82.3012 11.9 82.7945 11.58C83.3012 11.26 83.8612 11.08 84.4745 11.04L84.7545 11.02ZM87.7108 21.12C87.3508 21.12 87.0508 21.02 86.8108 20.82C86.5841 20.6067 86.4708 20.3067 86.4708 19.92V12.2C86.4708 11.8133 86.5841 11.52 86.8108 11.32C87.0508 11.12 87.3508 11.02 87.7108 11.02C88.0708 11.02 88.3708 11.12 88.6108 11.32C88.8508 11.52 88.9708 11.8133 88.9708 12.2V19.92C88.9708 20.3067 88.8508 20.6067 88.6108 20.82C88.3708 21.02 88.0708 21.12 87.7108 21.12ZM87.7108 9.24C87.2574 9.24 86.8974 9.12 86.6308 8.88C86.3641 8.62667 86.2308 8.3 86.2308 7.9C86.2308 7.5 86.3641 7.18 86.6308 6.94C86.8974 6.7 87.2574 6.58 87.7108 6.58C88.1508 6.58 88.5041 6.7 88.7708 6.94C89.0508 7.18 89.1908 7.5 89.1908 7.9C89.1908 8.3 89.0574 8.62667 88.7908 8.88C88.5241 9.12 88.1641 9.24 87.7108 9.24ZM99.7689 19.06C100.036 19.3133 100.169 19.6 100.169 19.92C100.169 20.2267 100.056 20.5 99.8289 20.74C99.6156 20.98 99.3622 21.1 99.0689 21.1C98.7756 21.1 98.5022 20.98 98.2489 20.74L93.5689 16.5V19.92C93.5689 20.3067 93.4489 20.6 93.2089 20.8C92.9689 21 92.6689 21.1 92.3089 21.1C91.9489 21.1 91.6489 21 91.4089 20.8C91.1822 20.6 91.0689 20.3067 91.0689 19.92V7.98C91.0689 7.59333 91.1822 7.3 91.4089 7.1C91.6489 6.9 91.9489 6.8 92.3089 6.8C92.6689 6.8 92.9689 6.9 93.2089 7.1C93.4489 7.3 93.5689 7.59333 93.5689 7.98V15.5L97.8489 11.4C98.0889 11.16 98.3622 11.04 98.6689 11.04C98.9756 11.04 99.2422 11.1533 99.4689 11.38C99.6956 11.6067 99.8089 11.8733 99.8089 12.18C99.8089 12.4867 99.6822 12.7667 99.4289 13.02L96.2889 15.94L99.7689 19.06ZM108.915 18.32C109.142 18.32 109.322 18.4067 109.455 18.58C109.602 18.7533 109.675 18.9867 109.675 19.28C109.675 19.6933 109.428 20.04 108.935 20.32C108.482 20.5733 107.968 20.78 107.395 20.94C106.822 21.0867 106.275 21.16 105.755 21.16C104.182 21.16 102.935 20.7067 102.015 19.8C101.095 18.8933 100.635 17.6533 100.635 16.08C100.635 15.08 100.835 14.1933 101.235 13.42C101.635 12.6467 102.195 12.0467 102.915 11.62C103.648 11.1933 104.475 10.98 105.395 10.98C106.275 10.98 107.042 11.1733 107.695 11.56C108.348 11.9467 108.855 12.4933 109.215 13.2C109.575 13.9067 109.755 14.74 109.755 15.7C109.755 16.2733 109.502 16.56 108.995 16.56H103.095C103.175 17.48 103.435 18.16 103.875 18.6C104.315 19.0267 104.955 19.24 105.795 19.24C106.222 19.24 106.595 19.1867 106.915 19.08C107.248 18.9733 107.622 18.8267 108.035 18.64C108.435 18.4267 108.728 18.32 108.915 18.32ZM105.455 12.74C104.775 12.74 104.228 12.9533 103.815 13.38C103.415 13.8067 103.175 14.42 103.095 15.22H107.615C107.588 14.4067 107.388 13.7933 107.015 13.38C106.642 12.9533 106.122 12.74 105.455 12.74ZM112.56 21.12C112.2 21.12 111.9 21.02 111.66 20.82C111.433 20.6067 111.32 20.3067 111.32 19.92V7.98C111.32 7.59333 111.433 7.3 111.66 7.1C111.9 6.9 112.2 6.8 112.56 6.8C112.92 6.8 113.22 6.9 113.46 7.1C113.7 7.3 113.82 7.59333 113.82 7.98V19.92C113.82 20.3067 113.7 20.6067 113.46 20.82C113.22 21.02 112.92 21.12 112.56 21.12ZM117.158 21.12C116.798 21.12 116.498 21.02 116.258 20.82C116.031 20.6067 115.918 20.3067 115.918 19.92V7.98C115.918 7.59333 116.031 7.3 116.258 7.1C116.498 6.9 116.798 6.8 117.158 6.8C117.518 6.8 117.818 6.9 118.058 7.1C118.298 7.3 118.418 7.59333 118.418 7.98V19.92C118.418 20.3067 118.298 20.6067 118.058 20.82C117.818 21.02 117.518 21.12 117.158 21.12ZM121.696 21.12C121.269 21.12 120.916 20.98 120.636 20.7C120.356 20.4067 120.216 20.0467 120.216 19.62C120.216 19.1933 120.356 18.84 120.636 18.56C120.916 18.2667 121.269 18.12 121.696 18.12C122.123 18.12 122.476 18.2667 122.756 18.56C123.036 18.84 123.176 19.1933 123.176 19.62C123.176 20.0467 123.036 20.4067 122.756 20.7C122.476 20.98 122.123 21.12 121.696 21.12ZM132.483 18.32C132.71 18.32 132.89 18.4067 133.023 18.58C133.17 18.7533 133.243 18.9867 133.243 19.28C133.243 19.6933 132.996 20.04 132.503 20.32C132.05 20.5733 131.536 20.78 130.963 20.94C130.39 21.0867 129.843 21.16 129.323 21.16C127.75 21.16 126.503 20.7067 125.583 19.8C124.663 18.8933 124.203 17.6533 124.203 16.08C124.203 15.08 124.403 14.1933 124.803 13.42C125.203 12.6467 125.763 12.0467 126.483 11.62C127.216 11.1933 128.043 10.98 128.963 10.98C129.843 10.98 130.61 11.1733 131.263 11.56C131.916 11.9467 132.423 12.4933 132.783 13.2C133.143 13.9067 133.323 14.74 133.323 15.7C133.323 16.2733 133.07 16.56 132.563 16.56H126.663C126.743 17.48 127.003 18.16 127.443 18.6C127.883 19.0267 128.523 19.24 129.363 19.24C129.79 19.24 130.163 19.1867 130.483 19.08C130.816 18.9733 131.19 18.8267 131.603 18.64C132.003 18.4267 132.296 18.32 132.483 18.32ZM129.023 12.74C128.343 12.74 127.796 12.9533 127.383 13.38C126.983 13.8067 126.743 14.42 126.663 15.22H131.183C131.156 14.4067 130.956 13.7933 130.583 13.38C130.21 12.9533 129.69 12.74 129.023 12.74ZM142.628 18.32C142.855 18.32 143.035 18.4067 143.168 18.58C143.315 18.7533 143.388 18.9867 143.388 19.28C143.388 19.6933 143.141 20.04 142.648 20.32C142.195 20.5733 141.681 20.78 141.108 20.94C140.535 21.0867 139.988 21.16 139.468 21.16C137.895 21.16 136.648 20.7067 135.728 19.8C134.808 18.8933 134.348 17.6533 134.348 16.08C134.348 15.08 134.548 14.1933 134.948 13.42C135.348 12.6467 135.908 12.0467 136.628 11.62C137.361 11.1933 138.188 10.98 139.108 10.98C139.988 10.98 140.755 11.1733 141.408 11.56C142.061 11.9467 142.568 12.4933 142.928 13.2C143.288 13.9067 143.468 14.74 143.468 15.7C143.468 16.2733 143.215 16.56 142.708 16.56H136.808C136.888 17.48 137.148 18.16 137.588 18.6C138.028 19.0267 138.668 19.24 139.508 19.24C139.935 19.24 140.308 19.1867 140.628 19.08C140.961 18.9733 141.335 18.8267 141.748 18.64C142.148 18.4267 142.441 18.32 142.628 18.32ZM139.168 12.74C138.488 12.74 137.941 12.9533 137.528 13.38C137.128 13.8067 136.888 14.42 136.808 15.22H141.328C141.301 14.4067 141.101 13.7933 140.728 13.38C140.355 12.9533 139.835 12.74 139.168 12.74Z" fill="#0317CE"/>
</svg>
